<svg id="visual" viewBox="0 0 960 540" width="960" height="540" xmlns="http://www.w3.org/2000/svg" xmlns:xlink="http://www.w3.org/1999/xlink" version="1.1"><path d="M0 60L14.5 59.2C29 58.3 58 56.7 87.2 56.7C116.3 56.7 145.7 58.3 174.8 58.3C204 58.3 233 56.7 262 52.2C291 47.7 320 40.3 349 39.5C378 38.7 407 44.3 436.2 48.8C465.3 53.3 494.7 56.7 523.8 54.8C553 53 582 46 611 38.8C640 31.7 669 24.3 698 26.2C727 28 756 39 785.2 40.8C814.3 42.7 843.7 35.3 872.8 31.7C902 28 931 28 945.5 28L960 28L960 0L945.5 0C931 0 902 0 872.8 0C843.7 0 814.3 0 785.2 0C756 0 727 0 698 0C669 0 640 0 611 0C582 0 553 0 523.8 0C494.7 0 465.3 0 436.2 0C407 0 378 0 349 0C320 0 291 0 262 0C233 0 204 0 174.8 0C145.7 0 116.3 0 87.2 0C58 0 29 0 14.5 0L0 0Z" fill="#293950"></path><path d="M0 93L14.5 94.8C29 96.7 58 100.3 87.2 100.3C116.3 100.3 145.7 96.7 174.8 93.8C204 91 233 89 262 83.5C291 78 320 69 349 75.3C378 81.7 407 103.3 436.2 116C465.3 128.7 494.7 132.3 523.8 129.7C553 127 582 118 611 103.7C640 89.3 669 69.7 698 65.2C727 60.7 756 71.3 785.2 77.5C814.3 83.7 843.7 85.3 872.8 88C902 90.7 931 94.3 945.5 96.2L960 98L960 26L945.5 26C931 26 902 26 872.8 29.7C843.7 33.3 814.3 40.7 785.2 38.8C756 37 727 26 698 24.2C669 22.3 640 29.7 611 36.8C582 44 553 51 523.8 52.8C494.7 54.7 465.3 51.3 436.2 46.8C407 42.3 378 36.7 349 37.5C320 38.3 291 45.7 262 50.2C233 54.7 204 56.3 174.8 56.3C145.7 56.3 116.3 54.7 87.2 54.7C58 54.7 29 56.3 14.5 57.2L0 58Z" fill="#223044"></path><path d="M0 109L14.5 116.2C29 123.3 58 137.7 87.2 139.5C116.3 141.3 145.7 130.7 174.8 123.5C204 116.3 233 112.7 262 110.8C291 109 320 109 349 115.3C378 121.7 407 134.3 436.2 147C465.3 159.7 494.7 172.3 523.8 169.7C553 167 582 149 611 134.5C640 120 669 109 698 103.5C727 98 756 98 785.2 105.2C814.3 112.3 843.7 126.7 872.8 130.3C902 134 931 127 945.5 123.5L960 120L960 96L945.5 94.2C931 92.3 902 88.7 872.8 86C843.7 83.3 814.3 81.7 785.2 75.5C756 69.3 727 58.7 698 63.2C669 67.7 640 87.3 611 101.7C582 116 553 125 523.8 127.7C494.7 130.3 465.3 126.7 436.2 114C407 101.3 378 79.7 349 73.3C320 67 291 76 262 81.5C233 87 204 89 174.8 91.8C145.7 94.7 116.3 98.3 87.2 98.3C58 98.3 29 94.7 14.5 92.8L0 91Z" fill="#1c2839"></path><path d="M0 206L14.5 211.5C29 217 58 228 87.2 226.2C116.3 224.3 145.7 209.7 174.8 215C204 220.3 233 245.7 262 249.3C291 253 320 235 349 237.7C378 240.3 407 263.7 436.2 273.5C465.3 283.3 494.7 279.7 523.8 268.8C553 258 582 240 611 225.7C640 211.3 669 200.7 698 208C727 215.3 756 240.7 785.2 261.3C814.3 282 843.7 298 872.8 289C902 280 931 246 945.5 229L960 212L960 118L945.5 121.5C931 125 902 132 872.8 128.3C843.7 124.7 814.3 110.3 785.2 103.2C756 96 727 96 698 101.5C669 107 640 118 611 132.5C582 147 553 165 523.8 167.7C494.7 170.3 465.3 157.7 436.2 145C407 132.3 378 119.7 349 113.3C320 107 291 107 262 108.8C233 110.7 204 114.3 174.8 121.5C145.7 128.7 116.3 139.3 87.2 137.5C58 135.7 29 121.3 14.5 114.2L0 107Z" fill="#16202e"></path><path d="M0 255L14.5 259.5C29 264 58 273 87.2 268.5C116.3 264 145.7 246 174.8 253.2C204 260.3 233 292.7 262 301.7C291 310.7 320 296.3 349 297.2C378 298 407 314 436.2 323C465.3 332 494.7 334 523.8 324.2C553 314.3 582 292.7 611 275.5C640 258.3 669 245.7 698 252C727 258.3 756 283.7 785.2 302.7C814.3 321.7 843.7 334.3 872.8 321.7C902 309 931 271 945.5 252L960 233L960 210L945.5 227C931 244 902 278 872.8 287C843.7 296 814.3 280 785.2 259.3C756 238.7 727 213.3 698 206C669 198.7 640 209.3 611 223.7C582 238 553 256 523.8 266.8C494.7 277.7 465.3 281.3 436.2 271.5C407 261.7 378 238.3 349 235.7C320 233 291 251 262 247.3C233 243.7 204 218.3 174.8 213C145.7 207.7 116.3 222.3 87.2 224.2C58 226 29 215 14.5 209.5L0 204Z" fill="#101823"></path><path d="M0 357L14.5 360.7C29 364.3 58 371.7 87.2 363.7C116.3 355.7 145.7 332.3 174.8 332.3C204 332.3 233 355.7 262 357.5C291 359.3 320 339.7 349 347.8C378 356 407 392 436.2 403.7C465.3 415.3 494.7 402.7 523.8 386.3C553 370 582 350 611 339.2C640 328.3 669 326.7 698 339.3C727 352 756 379 785.2 390.7C814.3 402.3 843.7 398.7 872.8 388.8C902 379 931 363 945.5 355L960 347L960 231L945.5 250C931 269 902 307 872.8 319.7C843.7 332.3 814.3 319.7 785.2 300.7C756 281.7 727 256.3 698 250C669 243.7 640 256.3 611 273.5C582 290.7 553 312.3 523.8 322.2C494.7 332 465.3 330 436.2 321C407 312 378 296 349 295.2C320 294.3 291 308.7 262 299.7C233 290.7 204 258.3 174.8 251.2C145.7 244 116.3 262 87.2 266.5C58 271 29 262 14.5 257.5L0 253Z" fill="#0f1721"></path><path d="M0 498L14.5 495.3C29 492.7 58 487.3 87.2 481.8C116.3 476.3 145.7 470.7 174.8 471.5C204 472.3 233 479.7 262 482.5C291 485.3 320 483.7 349 481C378 478.3 407 474.7 436.2 476.3C465.3 478 494.7 485 523.8 483.2C553 481.3 582 470.7 611 468C640 465.3 669 470.7 698 473.3C727 476 756 476 785.2 477C814.3 478 843.7 480 872.8 477.3C902 474.7 931 467.3 945.5 463.7L960 460L960 345L945.5 353C931 361 902 377 872.8 386.8C843.7 396.7 814.3 400.3 785.2 388.7C756 377 727 350 698 337.3C669 324.7 640 326.3 611 337.2C582 348 553 368 523.8 384.3C494.7 400.7 465.3 413.3 436.2 401.7C407 390 378 354 349 345.8C320 337.7 291 357.3 262 355.5C233 353.7 204 330.3 174.8 330.3C145.7 330.3 116.3 353.7 87.2 361.7C58 369.7 29 362.3 14.5 358.7L0 355Z" fill="#0f161f"></path><path d="M0 525L14.5 520.5C29 516 58 507 87.2 502.5C116.3 498 145.7 498 174.8 498.8C204 499.7 233 501.3 262 504C291 506.7 320 510.3 349 511.3C378 512.3 407 510.7 436.2 511.5C465.3 512.3 494.7 515.7 523.8 515.7C553 515.7 582 512.3 611 508.8C640 505.3 669 501.7 698 499.8C727 498 756 498 785.2 498C814.3 498 843.7 498 872.8 498C902 498 931 498 945.5 498L960 498L960 458L945.5 461.7C931 465.3 902 472.7 872.8 475.3C843.7 478 814.3 476 785.2 475C756 474 727 474 698 471.3C669 468.7 640 463.3 611 466C582 468.7 553 479.3 523.8 481.2C494.7 483 465.3 476 436.2 474.3C407 472.7 378 476.3 349 479C320 481.7 291 483.3 262 480.5C233 477.7 204 470.3 174.8 469.5C145.7 468.7 116.3 474.3 87.2 479.8C58 485.3 29 490.7 14.5 493.3L0 496Z" fill="#0e141d"></path><path d="M0 541L14.5 541C29 541 58 541 87.2 541C116.3 541 145.7 541 174.8 541C204 541 233 541 262 541C291 541 320 541 349 541C378 541 407 541 436.2 541C465.3 541 494.7 541 523.8 541C553 541 582 541 611 541C640 541 669 541 698 541C727 541 756 541 785.2 541C814.3 541 843.7 541 872.8 541C902 541 931 541 945.5 541L960 541L960 496L945.5 496C931 496 902 496 872.8 496C843.7 496 814.3 496 785.2 496C756 496 727 496 698 497.8C669 499.7 640 503.3 611 506.8C582 510.3 553 513.7 523.8 513.7C494.7 513.7 465.3 510.3 436.2 509.5C407 508.7 378 510.3 349 509.3C320 508.3 291 504.7 262 502C233 499.3 204 497.7 174.8 496.8C145.7 496 116.3 496 87.2 500.5C58 505 29 514 14.5 518.5L0 523Z" fill="#0d131b"></path></svg>